<svg width="512" height="512" viewBox="0 0 512 512" fill="none" xmlns="http://www.w3.org/2000/svg">
<rect width="512" height="512" fill="white"/>
<path d="M264.465 281.78H240.006V345.581H264.465V281.78Z" fill="#00665E"/>
<path d="M264.465 202.632H240.006V272.965H264.465V202.632Z" fill="#00665E"/>
<path d="M262.268 146.607L260.482 143.299C259.341 141.43 258.233 139.562 257.108 137.627C255.818 135.262 254.38 132.996 252.858 130.665C251.337 132.963 249.882 135.212 248.542 137.577C247.467 139.446 246.326 141.331 245.202 143.167L242.076 148.823L240.025 152.626V194.78H264.501V150.724L263.525 148.938L262.268 146.623V146.607Z" fill="#00665E"/>
<path d="M310.544 374.372V402.287C310.544 430.235 290.766 453.619 264.504 459.258V412.871H240.046V459.258C213.751 453.619 194.006 430.235 194.006 402.287V374.372L171.763 414.508L171.911 415.418C177.733 451.353 206.111 478.326 241.319 483.006L252.531 490.663L263.925 482.89C298.803 477.962 326.85 451.089 332.671 415.401L332.803 414.508L310.561 374.389H310.544V374.372Z" fill="#00665E"/>
<path d="M255.938 88.8886L253.028 85.6638L252.052 84.5723L251.076 83.4809C249.555 81.7941 248.017 80.1403 246.43 78.5197C243.105 75.2784 239.881 72.0205 236.573 68.9942C233.167 66.067 229.859 63.1565 226.535 60.4113C223.128 57.7653 219.804 55.2185 216.48 52.7875C213.239 50.3069 209.832 48.2232 206.641 46.123C203.399 44.0558 200.356 41.9887 197.181 40.3184C194.105 38.615 191.112 36.9613 188.301 35.4233C185.473 33.8688 182.645 32.645 180.065 31.4047C174.839 29.0068 170.308 26.9231 166.389 25.5836C158.649 22.7226 154.184 21.3335 154.184 21.3335C154.184 21.3335 157.69 24.5583 163.892 29.8006C167.034 32.3143 170.672 35.6548 174.922 39.3096C179.205 42.8651 183.802 47.1814 188.863 51.7457C191.41 53.9452 193.94 56.4423 196.553 58.9725C199.149 61.5523 202.043 63.9668 204.64 66.8112C207.352 69.5399 210.097 72.3512 212.908 75.2287C215.356 77.9905 217.919 80.6861 220.515 83.4643C228.486 84.6881 235.978 86.193 243.139 88.0948L246.281 88.9217L247.24 89.1532L247.819 89.3186L249.373 89.732L251.324 90.2447L252.548 90.6085L253.871 90.2116L256.468 89.517L255.955 88.8555V88.8886H255.938Z" fill="#00665E"/>
<path d="M258.184 87.0228L258.35 87.2213L259.59 88.7262L261.955 88.0978C269.545 86.0802 277.516 84.4761 286.033 83.2358C288.497 80.6394 290.961 78.1092 293.276 75.5128C296.137 72.6684 298.916 69.8736 301.644 67.178C304.257 64.3336 307.151 61.9522 309.797 59.4054C312.427 56.8918 314.957 54.4277 317.537 52.2282C322.614 47.697 327.261 43.4304 331.56 39.9079C335.827 36.2862 339.498 32.9788 342.657 30.4816C348.925 25.3054 352.447 22.0972 352.447 22.0972C352.447 22.0972 347.949 23.4532 340.176 26.2481C336.257 27.571 331.709 29.6051 326.484 31.9534C323.871 33.1772 321.043 34.3679 318.215 35.9059C315.37 37.4438 312.41 39.048 309.252 40.7348C306.109 42.3885 303.017 44.4061 299.776 46.4567C296.551 48.5404 293.128 50.591 289.837 53.0386C286.546 55.4365 283.172 57.9502 279.749 60.5796C276.392 63.2752 273.068 66.1858 269.645 69.0798C266.288 72.0731 263.063 75.3144 259.706 78.5226C258.118 80.1268 256.531 81.8136 254.959 83.5004L256.911 85.6833L258.151 87.0394H258.184V87.0228Z" fill="#00665E"/>
<path d="M306.075 211.336C305.794 204.175 304.868 196.452 303.545 188.299C302.089 180.196 300.138 171.662 297.409 163.046C295.243 156.332 292.746 149.486 289.802 142.755L276.589 136.421C274.852 135.677 273.165 134.916 271.412 134.172C268.535 132.882 265.558 131.576 262.615 130.451L258.331 128.765L255.04 127.442L253.899 126.979L254.594 128.12C256.38 130.832 258.133 133.527 259.687 136.355C260.729 138.257 261.887 140.109 262.995 141.978C264.037 143.88 265.046 145.798 266.087 147.683C268.188 151.454 269.957 155.357 271.925 159.111C273.728 162.947 275.481 166.751 277.151 170.521C280.442 178.112 283.286 185.587 285.816 192.781C288.231 200.024 290.447 206.97 292.134 213.452C295.706 226.451 297.872 237.663 299.228 245.617C299.824 249.603 300.336 252.745 300.568 254.945C300.832 257.128 300.998 258.302 300.998 258.302C300.998 258.302 301.378 257.194 301.973 255.044C302.503 252.91 303.429 249.752 304.041 245.684C304.768 241.599 305.512 236.605 305.876 230.833C306.29 225.045 306.389 218.496 306.058 211.336" fill="#00665E"/>
<path d="M251.976 126.689L250.587 127.235L246.75 128.74L242.484 130.427C239.524 131.568 236.547 132.891 233.653 134.148C231.95 134.892 230.213 135.669 228.625 136.331L215.826 142.466C212.832 149.164 210.302 155.944 208.103 162.609C205.291 171.191 203.274 179.708 201.769 187.811C200.363 195.931 199.371 203.654 199.04 210.831C198.643 217.992 198.693 224.541 199.09 230.312C199.371 236.084 200.115 241.111 200.777 245.18C201.355 249.281 202.248 252.439 202.744 254.573C203.34 256.723 203.737 257.831 203.737 257.831C203.737 257.831 203.886 256.657 204.15 254.49C204.431 252.324 204.96 249.165 205.589 245.18C207.011 237.242 209.26 226.062 212.898 213.064C214.651 206.565 216.95 199.669 219.431 192.458C222.011 185.248 224.938 177.79 228.262 170.249C229.965 166.478 231.751 162.691 233.57 158.871C235.555 155.134 237.374 151.264 239.507 147.51C240.549 145.641 241.591 143.723 242.666 141.838C243.79 139.985 244.915 138.117 246.006 136.231C247.594 133.453 249.347 130.774 251.116 128.079L251.993 126.756V126.673H251.976V126.689Z" fill="#00665E"/>
<path d="M245.765 91.8089L244.194 91.379L242.391 90.9324C236.124 89.2456 229.84 87.9723 223.539 86.9304L221.29 86.55L219.041 86.1862C216.147 85.7728 213.269 85.3759 210.408 85.0617C201.313 83.9867 192.416 83.5898 183.932 83.5898L180.162 83.6229C170.553 83.9206 161.491 84.5821 153.222 85.8885C144.97 87.0958 137.495 88.6668 130.963 90.4363C124.447 92.1231 118.874 94.1407 114.359 95.8275C109.845 97.4647 106.421 99.2177 104.106 100.293C101.791 101.434 100.617 102.145 100.617 102.145C100.617 102.145 101.989 102.046 104.519 101.847C107.05 101.632 110.804 101.516 115.5 101.334C118.444 101.268 121.768 101.219 125.439 101.219C133.493 101.219 143.151 101.467 153.884 102.277C161.706 102.773 170.123 103.782 178.971 104.94C187.636 106.213 196.666 107.784 205.927 109.802C208.606 108.363 211.334 106.941 214.162 105.551C215.899 104.774 217.635 103.964 219.388 103.17C222.679 101.649 226.119 100.078 229.641 98.6885L229.707 98.6554L231.08 98.1427L232.519 97.597L234.073 97.0016C236.653 96.0094 239.332 95.0172 241.995 94.0911L244.591 93.198L245.633 92.8342L247.204 92.3216L247.287 92.2389L245.732 91.8254H245.765V91.8089Z" fill="#85AF9A"/>
<path d="M396.912 204.369C394.481 200.185 391.124 195.472 387.155 190.032C385.203 187.336 383.186 184.376 380.771 181.498C378.34 178.621 375.827 175.561 373.148 172.419C370.551 169.194 367.508 166.119 364.432 162.877C361.274 159.685 358.181 156.262 354.626 153.087C351.12 149.862 347.465 146.588 343.678 143.28C339.792 140.089 335.707 136.963 331.606 133.722C327.405 130.596 322.957 127.653 318.525 124.577C314.026 121.6 309.28 118.838 304.551 116.01C302.632 114.968 300.681 113.927 298.762 112.885C294.182 113.927 289.568 115.051 285.334 116.093C283.631 116.606 281.894 117.102 280.141 117.548L279.893 117.631L278.686 117.978L277.214 118.375C275.147 118.954 273.08 119.549 270.996 120.227L263.869 122.476C261.322 123.419 259.007 124.213 256.84 124.974C259.106 125.883 261.372 126.809 263.67 127.702C268.416 129.538 273.047 131.721 277.727 133.705C281.15 135.326 284.524 136.93 287.881 138.567L289.948 139.576L291.453 140.304L292.015 140.601C296.315 142.85 300.549 145.1 304.749 147.332C309.049 149.813 313.332 152.244 317.516 154.658C321.65 157.188 325.652 159.785 329.687 162.166C333.607 164.762 337.443 167.309 341.164 169.79C345.018 172.138 348.408 174.9 351.914 177.281C355.42 179.712 358.843 182.044 361.919 184.492C368.252 189.254 374.206 193.554 379.25 197.655C384.376 201.674 388.99 205.114 392.595 208.156C399.938 214.11 404.436 217.384 404.436 217.384C404.436 217.384 401.856 212.572 396.879 204.336" fill="#85AF9A"/>
<path d="M400.985 100.267C398.653 99.1918 395.246 97.4554 390.699 95.8017C386.2 94.0983 380.627 92.1138 374.078 90.4105C367.579 88.641 360.088 87.0699 351.836 85.8462C343.584 84.5563 334.538 83.9113 324.929 83.6136L321.159 83.5806C312.659 83.5806 303.762 83.9775 294.666 85.0524C292.268 85.317 289.87 85.6312 287.456 85.995L285.174 86.3423L282.908 86.7061C276.21 87.7976 269.43 89.1537 262.683 90.9232L261.608 91.2208L260.053 91.6177L258.515 92.0477L257.656 92.2792L254.993 92.9572L254.613 93.0565L252.545 93.7014C250.577 94.3298 248.593 94.9417 246.609 95.6032L243.814 96.5128L241.234 97.4223L238.605 98.3815L234.454 99.9691L233.015 100.515L231.576 101.044L230.749 101.358C225.507 103.442 220.446 105.939 215.336 108.221C213.616 109.065 211.979 109.958 210.276 110.818L208.308 111.826L206.34 112.868C204.405 113.91 202.487 114.952 200.585 115.994C195.789 118.822 191.076 121.583 186.578 124.56C182.113 127.62 177.697 130.58 173.497 133.689C169.379 136.963 165.311 140.056 161.425 143.264C157.654 146.555 153.999 149.829 150.477 153.071C146.921 156.246 143.796 159.669 140.654 162.877C137.578 166.119 134.535 169.178 131.939 172.403C129.276 175.578 126.746 178.621 124.315 181.515C121.933 184.376 119.899 187.336 117.882 190.032C113.979 195.472 110.605 200.219 108.191 204.386C103.213 212.605 100.617 217.417 100.617 217.417C100.617 217.417 105.082 214.126 112.458 208.19C116.063 205.147 120.693 201.707 125.803 197.672C130.814 193.571 136.784 189.271 143.134 184.508C146.227 182.044 149.65 179.729 153.139 177.298C156.662 174.9 160.035 172.171 163.889 169.806C167.626 167.326 171.446 164.779 175.349 162.199C179.401 159.818 183.419 157.221 187.537 154.675C191.754 152.277 196.021 149.846 200.32 147.365C204.703 145.05 209.135 142.702 213.583 140.353H213.6L215.651 139.345L217.751 138.336C220.943 136.798 224.134 135.293 227.326 133.738C232.023 131.77 236.636 129.587 241.399 127.752C243.714 126.875 245.98 125.933 248.262 125.023L248.907 124.759L250.28 124.246L250.346 124.213L251.686 123.7L252.512 123.403L254.778 122.625L255.704 122.311L257.06 121.831L259.442 120.972L262.865 119.748C265.296 118.987 267.694 118.243 270.108 117.482C271.911 116.887 273.763 116.374 275.582 115.845L277.021 115.415L278.493 115.002C280.461 114.456 282.478 113.91 284.429 113.315C287.902 112.471 291.326 111.644 294.782 110.834L296.948 110.321L298.701 109.891L299.131 109.809C308.376 107.791 317.438 106.187 326.12 104.947C334.901 103.789 343.352 102.78 351.174 102.284C361.907 101.474 371.581 101.242 379.619 101.242C383.257 101.242 386.581 101.276 389.541 101.342C394.238 101.54 397.959 101.656 400.522 101.854C403.069 102.053 404.441 102.152 404.441 102.152C404.441 102.152 403.25 101.441 400.952 100.283" fill="#85AF9A"/>
<path d="M273.28 313.3H273.263V355.09H231.258V313.3L42.6665 197.819C42.6665 200.746 44.0722 203.508 46.404 205.261L206.8 323.553V399.311C206.8 415.931 215.763 431.542 230.613 439.017L230.961 439.166L231.275 439.347V403.627H273.28V439.347L273.578 439.166L273.925 439.017C288.759 431.542 297.739 415.931 297.739 399.311V323.553L458.118 205.261C460.466 203.508 461.872 200.746 461.872 197.819L273.313 313.3H273.28ZM231.258 368.733H273.263V389.983H231.258V368.733Z" fill="#85AF9A"/>
</svg>
